#!OML:ASF H:\LiuWeirdWalks\Patient Classification 1\Patient 1\Session 1\male.ASF
:FULLY-SPECIFIED
:DEGREES
380
root 3.25108 17.8942 34.7837 1.31552 7.8335 1.50084
lowerback 0.820122 1.04823 -3.85012
upperback 0.589946 1.37378 0.302439
thorax 0.0477602 0.677195 2.45643
lowerneck -24.3985 -2.33463 0.0360347
upperneck 11.571 -2.78546 -2.01335
head 7.45871 -1.53285 -1.04321
rclavicle -1.79527e-014 8.05078e-015
rhumerus -35.6366 -31.2865 -68.4867
rradius 18.3768
rwrist 9.45717
rhand -10.3994 0.187654
rfingers 7.12502
rthumb 15.599 -29.2033
lclavicle -1.79527e-014 8.05078e-015
lhumerus -23.0248 -6.74949 72.7923
lradius 50.3135
lwrist 17.5299
lhand -18.9247 -4.29733
lfingers 7.12502
lthumb 7.37781 25.554
rfemur -14.3818 -5.21781 15.1907
rtibia 36.614
rfoot -14.4089 -22.991
rtoes -0.552949
lfemur -12.563 -3.34713 -23.0504
ltibia 28.6902
lfoot -10.7277 13.064
ltoes -2.31088
381
root 3.24903 17.8971 34.7955 1.36482 7.73741 1.35091
lowerback 0.776994 1.05331 -3.59664
upperback 0.548531 1.3831 0.338305
thorax 0.0336904 0.683268 2.35138
lowerneck -24.4345 -2.35856 -0.00656166
upperneck 11.5851 -2.81265 -1.9599
head 7.47011 -1.54234 -1.02284
rclavicle 1.47132e-014 1.13307e-014
rhumerus -36.1392 -31.125 -68.3062
rradius 18.2641
rwrist 9.77652
rhand -10.2621 0.193827
rfingers 7.12502
rthumb 15.7312 -29.1868
lclavicle 1.47132e-014 1.13307e-014
lhumerus -23.2727 -6.77046 72.9233
lradius 49.7656
lwrist 16.7958
lhand -18.7137 -4.13599
lfingers 7.12502
lthumb 7.58147 25.7081
rfemur -14.3793 -5.19064 15.3721
rtibia 36.5073
rfoot -14.3525 -22.93
rtoes -0.601665
lfemur -12.6018 -3.40088 -22.8697
ltibia 28.718
lfoot -10.7986 13.1702
ltoes -2.26381
382
root 3.24777 17.8989 34.8086 1.39227 7.64268 1.20583
lowerback 0.750536 1.06275 -3.33143
upperback 0.505535 1.39754 0.364231
thorax 0.00896246 0.692032 2.22914
lowerneck -24.4738 -2.39918 -0.070586
upperneck 11.6425 -2.8593 -1.88151
head 7.49709 -1.55957 -0.993886
rclavicle -5.62498e-015 1.28216e-014
rhumerus -36.6636 -30.9296 -68.1418
rradius 18.2126
rwrist 9.97352
rhand -10.1013 0.20522
rfingers 7.12502
rthumb 15.8861 -29.1631
lclavicle -5.62498e-015 1.28216e-014
lhumerus -23.5553 -6.79755 73.0697
lradius 49.2158
lwrist 15.9079
lhand -18.3891 -3.66933
lfingers 7.12502
lthumb 7.89479 26.1633
rfemur -14.3378 -5.21338 15.5306
rtibia 36.3863
rfoot -14.2945 -22.7989
rtoes -0.686782
lfemur -12.6229 -3.4279 -22.7
ltibia 28.7741
lfoot -10.8892 13.265
ltoes -2.22285
383
root 3.24563 17.8999 34.821 1.41878 7.52976 1.11171
lowerback 0.749091 1.07873 -3.12687
upperback 0.458514 1.41939 0.375518
thorax -0.0352621 0.704635 2.12524
lowerneck -24.5169 -2.4376 -0.119226
upperneck 11.7246 -2.90571 -1.81548
head 7.53261 -1.57724 -0.971854
rclavicle -4.20864e-015 -5.66536e-015
rhumerus -37.1895 -30.707 -67.9942
rradius 18.2135
rwrist 10.0757
rhand -9.89701 0.236943
rfingers 7.12502
rthumb 16.0828 -29.1157
lclavicle -4.20864e-015 -5.66536e-015
lhumerus -23.8716 -6.82595 73.237
lradius 48.6774
lwrist 14.9742
lhand -18.001 -3.08336
lfingers 7.12502
lthumb 8.26937 26.7348
rfemur -14.2983 -5.21675 15.631
rtibia 36.2705
rfoot -14.2326 -22.6527
rtoes -0.796661
lfemur -12.6404 -3.42712 -22.5836
ltibia 28.8331
lfoot -10.9756 13.3585
ltoes -2.18061
384
root 3.24268 17.9003 34.8333 1.40453 7.40234 0.949812
lowerback 0.792565 1.10294 -2.85963
upperback 0.412246 1.45138 0.403803
thorax -0.10319 0.722558 2.00259
lowerneck -24.5471 -2.48078 -0.170401
upperneck 11.8184 -2.95756 -1.75098
head 7.57011 -1.59774 -0.950619
rclavicle -7.97002e-015 -1.23246e-014
rhumerus -37.7218 -30.456 -67.8633
rradius 18.2683
rwrist 10.0428
rhand -9.6721 0.258713
rfingers 7.12502
rthumb 16.2994 -29.0763
lclavicle -7.97002e-015 -1.23246e-014
lhumerus -24.227 -6.88864 73.438
lradius 48.1542
lwrist 14.1788
lhand -17.6318 -2.56892
lfingers 7.12502
lthumb 8.62569 27.2349
rfemur -14.2257 -5.1948 15.8071
rtibia 36.1589
rfoot -14.1779 -22.5123
rtoes -0.936551
lfemur -12.619 -3.39494 -22.3911
ltibia 28.8864
lfoot -11.0611 13.445
ltoes -2.16334
385
root 3.23993 17.9002 34.8462 1.39406 7.27066 0.871053
lowerback 0.855609 1.13616 -2.66551
upperback 0.356498 1.49453 0.405221
thorax -0.193204 0.746177 1.89264
lowerneck -24.5515 -2.52524 -0.212908
upperneck 11.8901 -3.01025 -1.70971
head 7.59565 -1.62059 -0.937992
rclavicle -1.20979e-014 -3.77691e-015
rhumerus -38.2846 -30.207 -67.7172
rradius 18.3709
rwrist 9.89055
rhand -9.43654 0.267246
rfingers 7.12502
rthumb 16.5262 -29.049
lclavicle -1.20979e-014 -3.77691e-015
lhumerus -24.6285 -7.01597 73.6901
lradius 47.6526
lwrist 13.6024
lhand -17.3278 -2.15438
lfingers 7.12502
lthumb 8.919 27.6371
rfemur -14.1571 -5.21055 15.8849
rtibia 36.0788
rfoot -14.1415 -22.3338
rtoes -1.10471
lfemur -12.5653 -3.35255 -22.2936
ltibia 28.9032
lfoot -11.131 13.5316
ltoes -2.17046
